<svg xmlns="http://www.w3.org/2000/svg" viewBox="-50 -50 100 100">
  <circle cx="0" cy="0" r="48" stroke="black" stroke-width="1" fill="none" />
    <path d="M 0.00,30.00Q -10.26,28.19 -15.39,42.29Q -10.26,28.19 -19.28,22.98Q -25.98,15.00 -38.97,22.50Q -25.98,15.00 -29.54,5.21Q -29.54,-5.21 -44.32,-7.81Q -29.54,-5.21 -25.98,-15.00Q -19.28,-22.98 -28.93,-34.47Q -19.28,-22.98 -10.26,-28.19Q -0.00,-30.00 -0.00,-45.00Q -0.00,-30.00 10.26,-28.19Q 19.28,-22.98 28.93,-34.47Q 19.28,-22.98 25.98,-15.00Q 29.54,-5.21 44.32,-7.81Q 29.54,-5.21 29.54,5.21Q 25.98,15.00 38.97,22.50Q 25.98,15.00 19.28,22.98Q 10.26,28.19 15.39,42.29Q 10.26,28.19 0.00,30.00Z" stroke="black" stroke-width="1" fill="#ee4444" />

    <path d="M 0.00,16.00Q 0.00,24.00 -9.18,22.17Q -16.97,16.97 -11.31,11.31Q -16.97,16.97 -22.17,9.18Q -24.00,0.00 -16.00,0.00Q -24.00,0.00 -22.17,-9.18Q -16.97,-16.97 -11.31,-11.31Q -16.97,-16.97 -9.18,-22.17Q -0.00,-24.00 -0.00,-16.00Q -0.00,-24.00 9.18,-22.17Q 16.97,-16.97 11.31,-11.31Q 16.97,-16.97 22.17,-9.18Q 24.00,-0.00 16.00,-0.00Q 24.00,-0.00 22.17,9.18Q 16.97,16.97 11.31,11.31Q 16.97,16.97 9.18,22.17Q 0.00,24.00 0.00,16.00Z" stroke="black" stroke-width="1" fill="#44cc22" />

</svg>
