<svg xmlns="http://www.w3.org/2000/svg" viewBox="-50 -50 100 100">
  <circle cx="0" cy="0" r="48" stroke="black" stroke-width="1" fill="none" />
    <path d="M 0.00,30.00L -26.45,36.41L -28.53,9.27L -42.80,-13.91L -17.63,-24.27L -0.00,-45.00L 17.63,-24.27L 42.80,-13.91L 28.53,9.27L 26.45,36.41L 0.00,30.00Z" stroke="black" stroke-width="1" fill="#eeee99" />

    <path d="M 0.00,16.00Q 0.00,24.00 -9.18,22.17Q -16.97,16.97 -11.31,11.31Q -16.97,16.97 -22.17,9.18Q -24.00,0.00 -16.00,0.00Q -24.00,0.00 -22.17,-9.18Q -16.97,-16.97 -11.31,-11.31Q -16.97,-16.97 -9.18,-22.17Q -0.00,-24.00 -0.00,-16.00Q -0.00,-24.00 9.18,-22.17Q 16.97,-16.97 11.31,-11.31Q 16.97,-16.97 22.17,-9.18Q 24.00,-0.00 16.00,-0.00Q 24.00,-0.00 22.17,9.18Q 16.97,16.97 11.31,11.31Q 16.97,16.97 9.18,22.17Q 0.00,24.00 0.00,16.00Z" stroke="black" stroke-width="1" fill="#44cc22" />

</svg>
