<svg xmlns="http://www.w3.org/2000/svg" viewBox="-50 -50 100 100">
  <circle cx="0" cy="0" r="48" stroke="black" stroke-width="1" fill="none" />
    <path d="M 0.00,30.00L -26.45,36.41L -28.53,9.27L -42.80,-13.91L -17.63,-24.27L -0.00,-45.00L 17.63,-24.27L 42.80,-13.91L 28.53,9.27L 26.45,36.41L 0.00,30.00Z" stroke="black" stroke-width="1" fill="#eeee99" />

    <path d="M 0.00,16.00A 16.0 16.0 0 0 1 -6.94,14.42L -10.41,21.62A 24 24 0 0 1 -18.76,14.96L -12.51,9.98A 16.0 16.0 0 0 1 -15.60,3.56L -23.40,5.34A 24 24 0 0 1 -23.40,-5.34L -15.60,-3.56A 16.0 16.0 0 0 1 -12.51,-9.98L -18.76,-14.96A 24 24 0 0 1 -10.41,-21.62L -6.94,-14.42A 16.0 16.0 0 0 1 -0.00,-16.00L -0.00,-24.00A 24 24 0 0 1 10.41,-21.62L 6.94,-14.42A 16.0 16.0 0 0 1 12.51,-9.98L 18.76,-14.96A 24 24 0 0 1 23.40,-5.34L 15.60,-3.56A 16.0 16.0 0 0 1 15.60,3.56L 23.40,5.34A 24 24 0 0 1 18.76,14.96L 12.51,9.98A 16.0 16.0 0 0 1 6.94,14.42L 10.41,21.62A 24 24 0 0 1 0.00,24.00L 0.00,16.00Z" stroke="black" stroke-width="1" fill="#999999" />

</svg>
