<svg xmlns="http://www.w3.org/2000/svg" viewBox="-50 -50 100 100">
  <circle cx="0" cy="0" r="48" stroke="black" stroke-width="1" fill="none" />
    <path d="M 0.00,30.00A 30.0 30.0 0 0 1 -13.02,27.03L -19.52,40.54A 45 45 0 0 1 -35.18,28.06L -23.45,18.70A 30.0 30.0 0 0 1 -29.25,6.68L -43.87,10.01A 45 45 0 0 1 -43.87,-10.01L -29.25,-6.68A 30.0 30.0 0 0 1 -23.45,-18.70L -35.18,-28.06A 45 45 0 0 1 -19.52,-40.54L -13.02,-27.03A 30.0 30.0 0 0 1 -0.00,-30.00L -0.00,-45.00A 45 45 0 0 1 19.52,-40.54L 13.02,-27.03A 30.0 30.0 0 0 1 23.45,-18.70L 35.18,-28.06A 45 45 0 0 1 43.87,-10.01L 29.25,-6.68A 30.0 30.0 0 0 1 29.25,6.68L 43.87,10.01A 45 45 0 0 1 35.18,28.06L 23.45,18.70A 30.0 30.0 0 0 1 13.02,27.03L 19.52,40.54A 45 45 0 0 1 0.00,45.00L 0.00,30.00Z" stroke="black" stroke-width="1" fill="#999999" />

    <path d="M 0.00,24.00L -20.78,12.00L -20.78,-12.00L -0.00,-24.00L 20.78,-12.00L 20.78,12.00L 0.00,24.00Z" stroke="black" stroke-width="1" fill="#22bbcc" />

</svg>
