<svg xmlns="http://www.w3.org/2000/svg" viewBox="-50 -50 100 100">
  <circle cx="0" cy="0" r="48" stroke="black" stroke-width="1" fill="none" />
    <path d="M 0.00,30.00Q 0.00,45.00 -17.22,41.57Q -31.82,31.82 -21.21,21.21Q -31.82,31.82 -41.57,17.22Q -45.00,0.00 -30.00,0.00Q -45.00,0.00 -41.57,-17.22Q -31.82,-31.82 -21.21,-21.21Q -31.82,-31.82 -17.22,-41.57Q -0.00,-45.00 -0.00,-30.00Q -0.00,-45.00 17.22,-41.57Q 31.82,-31.82 21.21,-21.21Q 31.82,-31.82 41.57,-17.22Q 45.00,-0.00 30.00,-0.00Q 45.00,-0.00 41.57,17.22Q 31.82,31.82 21.21,21.21Q 31.82,31.82 17.22,41.57Q 0.00,45.00 0.00,30.00Z" stroke="black" stroke-width="1" fill="#44cc22" />

    <path d="M 0.00,16.00Q 0.00,24.00 -9.18,22.17Q -16.97,16.97 -11.31,11.31Q -16.97,16.97 -22.17,9.18Q -24.00,0.00 -16.00,0.00Q -24.00,0.00 -22.17,-9.18Q -16.97,-16.97 -11.31,-11.31Q -16.97,-16.97 -9.18,-22.17Q -0.00,-24.00 -0.00,-16.00Q -0.00,-24.00 9.18,-22.17Q 16.97,-16.97 11.31,-11.31Q 16.97,-16.97 22.17,-9.18Q 24.00,-0.00 16.00,-0.00Q 24.00,-0.00 22.17,9.18Q 16.97,16.97 11.31,11.31Q 16.97,16.97 9.18,22.17Q 0.00,24.00 0.00,16.00Z" stroke="black" stroke-width="1" fill="#44cc22" />

</svg>
