<svg xmlns="http://www.w3.org/2000/svg" viewBox="-50 -50 100 100">
  <circle cx="0" cy="0" r="48" stroke="black" stroke-width="1" fill="none" />
    <path d="M 0.00,30.00A 30.0 30.0 0 0 1 -13.02,27.03L -19.52,40.54A 45 45 0 0 1 -35.18,28.06L -23.45,18.70A 30.0 30.0 0 0 1 -29.25,6.68L -43.87,10.01A 45 45 0 0 1 -43.87,-10.01L -29.25,-6.68A 30.0 30.0 0 0 1 -23.45,-18.70L -35.18,-28.06A 45 45 0 0 1 -19.52,-40.54L -13.02,-27.03A 30.0 30.0 0 0 1 -0.00,-30.00L -0.00,-45.00A 45 45 0 0 1 19.52,-40.54L 13.02,-27.03A 30.0 30.0 0 0 1 23.45,-18.70L 35.18,-28.06A 45 45 0 0 1 43.87,-10.01L 29.25,-6.68A 30.0 30.0 0 0 1 29.25,6.68L 43.87,10.01A 45 45 0 0 1 35.18,28.06L 23.45,18.70A 30.0 30.0 0 0 1 13.02,27.03L 19.52,40.54A 45 45 0 0 1 0.00,45.00L 0.00,30.00Z" stroke="black" stroke-width="1" fill="#999999" />

    <path d="M 0.00,16.00Q -5.47,15.04 -8.21,22.55Q -5.47,15.04 -10.28,12.26Q -13.86,8.00 -20.78,12.00Q -13.86,8.00 -15.76,2.78Q -15.76,-2.78 -23.64,-4.17Q -15.76,-2.78 -13.86,-8.00Q -10.28,-12.26 -15.43,-18.39Q -10.28,-12.26 -5.47,-15.04Q -0.00,-16.00 -0.00,-24.00Q -0.00,-16.00 5.47,-15.04Q 10.28,-12.26 15.43,-18.39Q 10.28,-12.26 13.86,-8.00Q 15.76,-2.78 23.64,-4.17Q 15.76,-2.78 15.76,2.78Q 13.86,8.00 20.78,12.00Q 13.86,8.00 10.28,12.26Q 5.47,15.04 8.21,22.55Q 5.47,15.04 0.00,16.00Z" stroke="black" stroke-width="1" fill="#ee4444" />

</svg>
