<svg xmlns="http://www.w3.org/2000/svg" viewBox="-50 -50 100 100">
  <circle cx="0" cy="0" r="48" stroke="black" stroke-width="1" fill="none" />
    <path d="M 0.00,45.00L -38.97,22.50L -38.97,-22.50L -0.00,-45.00L 38.97,-22.50L 38.97,22.50L 0.00,45.00Z" stroke="black" stroke-width="1" fill="#22bbcc" />

    <path d="M 0.00,16.00Q -5.47,15.04 -8.21,22.55Q -5.47,15.04 -10.28,12.26Q -13.86,8.00 -20.78,12.00Q -13.86,8.00 -15.76,2.78Q -15.76,-2.78 -23.64,-4.17Q -15.76,-2.78 -13.86,-8.00Q -10.28,-12.26 -15.43,-18.39Q -10.28,-12.26 -5.47,-15.04Q -0.00,-16.00 -0.00,-24.00Q -0.00,-16.00 5.47,-15.04Q 10.28,-12.26 15.43,-18.39Q 10.28,-12.26 13.86,-8.00Q 15.76,-2.78 23.64,-4.17Q 15.76,-2.78 15.76,2.78Q 13.86,8.00 20.78,12.00Q 13.86,8.00 10.28,12.26Q 5.47,15.04 8.21,22.55Q 5.47,15.04 0.00,16.00Z" stroke="black" stroke-width="1" fill="#ee4444" />

</svg>
